<?xml version="1.0" standalone="no"?>
<!DOCTYPE svg PUBLIC "-//W3C//DTD SVG 20010904//EN"
 "http://www.w3.org/TR/2001/REC-SVG-20010904/DTD/svg10.dtd">
<svg version="1.0" xmlns="http://www.w3.org/2000/svg"
 width="286.000000pt" height="286.000000pt" viewBox="0 0 286.000000 286.000000"
 preserveAspectRatio="xMidYMid meet">

<g transform="translate(0.000000,286.000000) scale(0.100000,-0.100000)"
fill="#000000" stroke="none">
<path d="M1290 2760 c-323 -80 -552 -354 -568 -680 -7 -145 14 -244 79 -378
43 -88 62 -116 137 -191 72 -73 103 -96 181 -135 65 -32 105 -46 125 -44 l31
3 3 80 3 80 -78 0 c-102 0 -141 23 -183 105 -17 34 -47 73 -70 92 -36 28 -39
34 -25 44 30 22 76 -1 140 -71 51 -57 66 -67 102 -72 52 -7 113 4 113 20 0 7
9 30 19 50 14 27 16 39 8 42 -7 1 -42 11 -80 20 -157 40 -237 155 -237 341 0
74 3 89 33 146 30 57 33 71 29 124 -2 32 1 79 8 103 11 43 12 43 48 37 20 -4
69 -23 107 -42 65 -33 73 -35 115 -25 58 14 206 14 268 1 46 -10 53 -9 118 24
38 19 86 38 106 41 36 7 37 7 48 -36 7 -24 10 -71 8 -103 -4 -53 -1 -67 30
-125 34 -65 34 -68 30 -166 -5 -113 -24 -167 -79 -230 -40 -45 -134 -92 -201
-101 -27 -4 -48 -8 -48 -11 0 -2 8 -16 18 -30 14 -22 18 -57 22 -183 l5 -155
30 -3 c20 -2 58 11 110 37 191 96 320 250 387 461 19 62 23 97 23 200 0 144
-12 202 -65 317 -126 271 -382 434 -680 432 -57 0 -125 -8 -170 -19z"/>
<path d="M1015 1680 c3 -5 8 -10 11 -10 2 0 4 5 4 10 0 6 -5 10 -11 10 -5 0
-7 -4 -4 -10z"/>
<path d="M1040 1651 c0 -5 5 -13 10 -16 6 -3 10 -2 10 4 0 5 -4 13 -10 16 -5
3 -10 2 -10 -4z"/>
<path d="M1080 1600 c0 -5 5 -10 10 -10 6 0 10 5 10 10 0 6 -4 10 -10 10 -5 0
-10 -4 -10 -10z"/>
<path d="M1130 1570 c0 -5 5 -10 10 -10 6 0 10 5 10 10 0 6 -4 10 -10 10 -5 0
-10 -4 -10 -10z"/>
<path d="M1250 1570 c0 -5 5 -10 10 -10 6 0 10 5 10 10 0 6 -4 10 -10 10 -5 0
-10 -4 -10 -10z"/>
<path d="M1190 1560 c0 -5 5 -10 10 -10 6 0 10 5 10 10 0 6 -4 10 -10 10 -5 0
-10 -4 -10 -10z"/>
<path d="M485 1141 c-91 -42 -127 -109 -133 -250 -8 -165 29 -256 125 -302 62
-31 184 -33 256 -6 l47 19 0 149 0 149 -100 0 -100 0 0 -50 0 -50 40 0 40 0 0
-60 0 -60 -54 0 c-93 0 -136 59 -136 187 0 69 16 115 51 149 27 26 37 29 97
29 37 0 79 -3 93 -7 25 -7 27 -5 38 37 6 24 11 48 11 54 0 33 -209 42 -275 12z"/>
<path d="M1340 855 l0 -286 58 3 57 3 3 123 3 122 79 0 79 0 3 -122 3 -123 58
-3 57 -3 0 286 0 285 -60 0 -60 0 0 -105 0 -105 -80 0 -80 0 0 105 0 105 -60
0 -60 0 0 -285z"/>
<path d="M2212 858 l3 -283 43 -3 c33 -2 42 0 42 12 0 20 5 20 36 -1 39 -25
145 -24 181 3 44 32 57 70 61 170 7 159 -40 221 -157 211 -31 -2 -64 -8 -73
-12 -15 -6 -18 -2 -17 26 1 19 1 62 0 97 l-1 62 -60 0 -60 0 2 -282z m232 -10
c10 -14 16 -44 16 -83 0 -74 -18 -105 -61 -105 -62 0 -69 11 -69 110 0 97 0
96 67 99 22 1 36 -6 47 -21z"/>
<path d="M861 1104 c-24 -30 -26 -46 -10 -75 36 -69 147 -18 119 55 -19 50
-77 60 -109 20z"/>
<path d="M1068 1013 c-3 -52 -5 -58 -28 -63 -21 -5 -25 -12 -28 -48 -3 -41 -2
-42 26 -42 l30 0 4 -109 c3 -92 7 -115 24 -138 27 -36 86 -56 142 -48 l42 6 0
45 c0 42 -1 44 -29 44 -50 0 -61 21 -61 116 l0 84 45 0 45 0 0 50 0 50 -45 0
-45 0 0 55 0 55 -60 0 -59 0 -3 -57z"/>
<path d="M850 765 l0 -196 58 3 57 3 3 193 2 192 -60 0 -60 0 0 -195z"/>
<path d="M1800 808 c0 -183 10 -215 75 -236 46 -16 120 -10 163 12 27 14 31
14 36 0 4 -11 17 -14 43 -12 l38 3 3 193 2 192 -60 0 -60 0 0 -140 0 -140 -26
-10 c-40 -16 -72 -12 -84 9 -5 11 -10 78 -10 150 l0 131 -60 0 -60 0 0 -152z"/>
</g>
</svg>
